Coordinates
version=1
nRows=37
nColumns=38
inDegrees=no

Units are S.I. units (second, meters, Newtons, ...)
If the header above contains a line with 'inDegrees', this indicates whether rotational values are in degrees (yes) or radians (no).

endheader
time	pelvis_tilt	pelvis_list	pelvis_rotation	pelvis_tx	pelvis_ty	pelvis_tz	hip_flexion_r	hip_adduction_r	hip_rotation_r	knee_angle_r	ankle_angle_r	subtalar_angle_r	mtp_angle_r	hip_flexion_l	hip_adduction_l	hip_rotation_l	knee_angle_l	ankle_angle_l	subtalar_angle_l	mtp_angle_l	lumbar_extension	lumbar_bending	lumbar_rotation	arm_flex_r	arm_add_r	arm_rot_r	elbow_flex_r	pro_sup_r	wrist_flex_r	wrist_dev_r	arm_flex_l	arm_add_l	arm_rot_l	elbow_flex_l	pro_sup_l	wrist_flex_l	wrist_dev_l
0.83	0.882114	1.42971	-2.57127	0.718388	0.348317	1.04752	0.0547992	-0.166828	0.0648081	1.16886	-0.351705	0	0	0.121705	0.134775	-0.339719	0.43858	-0.18884	0	0	-0.173008	-0.0758035	-0.0175592	-0.274918	-0.221621	-0.146409	0.460129	0.588942	0	0	-0.193259	-0.541596	1.23698	0.525732	0.388596	0	0
0.84	0.858927	1.42593	-2.54575	0.719692	0.339206	1.04859	0.0753741	-0.166139	0.0675605	1.2048	-0.325674	0	0	0.10381	0.139265	-0.342368	0.432812	-0.186338	0	0	-0.179574	-0.0760943	-0.0228444	-0.276802	-0.223641	-0.14639	0.467778	0.589749	0	0	-0.178699	-0.556074	1.22601	0.539192	0.407479	0	0
0.85	0.833137	1.42367	-2.51654	0.721041	0.330242	1.04977	0.095508	-0.163386	0.0684169	1.23584	-0.298681	0	0	0.0863222	0.141855	-0.342076	0.426429	-0.184604	0	0	-0.185546	-0.074326	-0.0288624	-0.27762	-0.225658	-0.145947	0.472757	0.590464	0	0	-0.163471	-0.569912	1.21343	0.551961	0.425907	0	0
0.86	0.80597	1.42259	-2.48519	0.722351	0.321529	1.05103	0.115784	-0.158994	0.0690434	1.26186	-0.275544	0	0	0.0695737	0.142822	-0.338877	0.419748	-0.183379	0	0	-0.191042	-0.0710806	-0.0353995	-0.277613	-0.227463	-0.1449	0.476033	0.590802	0	0	-0.147151	-0.583007	1.2017	0.56323	0.445403	0	0
0.87	0.772914	1.42206	-2.44752	0.723653	0.313083	1.05241	0.13502	-0.153132	0.069424	1.28243	-0.258138	0	0	0.0529421	0.142362	-0.333478	0.413174	-0.182702	0	0	-0.196845	-0.066391	-0.0414476	-0.277805	-0.229532	-0.142227	0.4795	0.593185	0	0	-0.128559	-0.596051	1.19415	0.573992	0.462531	0	0
0.88	0.73037	1.42099	-2.4003	0.724836	0.304871	1.05393	0.151762	-0.146079	0.0696634	1.29765	-0.241837	0	0	0.0349253	0.140787	-0.327345	0.406359	-0.182515	0	0	-0.204454	-0.0611372	-0.0464465	-0.278286	-0.231036	-0.139908	0.48328	0.595363	0	0	-0.108544	-0.61001	1.1867	0.585758	0.481658	0	0
0.89	0.663387	1.40737	-2.32561	0.72464	0.298055	1.05618	0.155392	-0.142654	0.0688619	1.30975	-0.225827	0	0	0.00547633	0.143265	-0.316696	0.399123	-0.185325	0	0	-0.229661	-0.0643505	-0.0549992	-0.276443	-0.226833	-0.139469	0.492226	0.596121	0	0	-0.08418	-0.637383	1.17545	0.612355	0.501563	0	0
0.9	0.620576	1.40805	-2.27857	0.725875	0.289849	1.05764	0.171695	-0.132964	0.0684703	1.31487	-0.216967	0	0	-0.0105249	0.138701	-0.315043	0.393956	-0.185016	0	0	-0.234965	-0.0562234	-0.059074	-0.276476	-0.228243	-0.139536	0.494393	0.596854	0	0	-0.0636457	-0.649687	1.16873	0.62335	0.511771	0	0
0.91	0.583654	1.41105	-2.23879	0.727236	0.281441	1.0589	0.190308	-0.122745	0.068099	1.31509	-0.207408	0	0	-0.0241264	0.133683	-0.316014	0.388103	-0.183796	0	0	-0.236108	-0.0469706	-0.0608538	-0.276629	-0.230335	-0.139809	0.494573	0.59722	0	0	-0.0436099	-0.659046	1.16203	0.630858	0.523614	0	0
0.92	0.552439	1.41558	-2.20523	0.728611	0.272836	1.06001	0.209544	-0.11276	0.0665705	1.30945	-0.197742	0	0	-0.03605	0.128616	-0.318346	0.381694	-0.182292	0	0	-0.233851	-0.0373967	-0.0619512	-0.276751	-0.232621	-0.140389	0.493225	0.597437	0	0	-0.0246879	-0.666101	1.15482	0.635127	0.53708	0	0
0.93	0.523998	1.42042	-2.17377	0.72997	0.264204	1.06098	0.227978	-0.103457	0.0631832	1.29872	-0.18761	0	0	-0.0471831	0.123882	-0.319107	0.375211	-0.180705	0	0	-0.230614	-0.0280295	-0.0635765	-0.276808	-0.23444	-0.142088	0.491679	0.597319	0	0	-0.00672637	-0.672784	1.14425	0.639163	0.553029	0	0
0.94	0.498183	1.42505	-2.14455	0.731263	0.255653	1.06179	0.246009	-0.0950346	0.059436	1.28435	-0.180068	0	0	-0.0574759	0.119801	-0.318054	0.369176	-0.179386	0	0	-0.227302	-0.0192681	-0.066549	-0.276382	-0.235978	-0.144257	0.491164	0.597699	0	0	0.0102533	-0.679873	1.13174	0.644157	0.567347	0	0
0.95	0.476077	1.43003	-2.11936	0.732438	0.246978	1.06242	0.263796	-0.0870583	0.055871	1.26648	-0.173968	0	0	-0.0670833	0.116081	-0.316727	0.362747	-0.17819	0	0	-0.222722	-0.0110838	-0.069841	-0.275831	-0.237319	-0.146521	0.49097	0.59899	0	0	0.0262689	-0.686694	1.11884	0.64921	0.581553	0	0
0.96	0.459958	1.43555	-2.10034	0.733557	0.238187	1.06284	0.281309	-0.0799607	0.0519451	1.24446	-0.168034	0	0	-0.0756451	0.112863	-0.315377	0.356165	-0.176442	0	0	-0.216375	-0.00364263	-0.0732962	-0.275259	-0.238448	-0.149116	0.490597	0.600758	0	0	0.0412788	-0.693358	1.10613	0.654156	0.597252	0	0
0.97	0.447064	1.44083	-2.08393	0.734646	0.22946	1.06313	0.297583	-0.0739541	0.0473312	1.21842	-0.160868	0	0	-0.083803	0.110174	-0.312702	0.349935	-0.174187	0	0	-0.210115	0.00308113	-0.0773509	-0.274098	-0.239015	-0.152501	0.49006	0.603406	0	0	0.0549743	-0.699802	1.08989	0.658962	0.621647	0	0
0.98	0.434711	1.4457	-2.0677	0.735666	0.220793	1.0633	0.312188	-0.0685622	0.0426651	1.18868	-0.152913	0	0	-0.0918176	0.107703	-0.309747	0.344364	-0.172122	0	0	-0.204521	0.00918268	-0.0818827	-0.272768	-0.239021	-0.156348	0.490387	0.607715	0	0	0.0669172	-0.705969	1.06887	0.663967	0.655847	0	0
0.99	0.422049	1.45064	-2.05138	0.736561	0.212106	1.06335	0.325042	-0.0631652	0.0381144	1.15548	-0.143412	0	0	-0.0995124	0.105076	-0.307451	0.339393	-0.170354	0	0	-0.198982	0.0148424	-0.0869448	-0.270854	-0.238767	-0.159912	0.490842	0.612549	0	0	0.0774803	-0.712778	1.04558	0.670629	0.688148	0	0
1	0.407205	1.4558	-2.03311	0.7373	0.203472	1.06329	0.336512	-0.0574779	0.0342058	1.11917	-0.133589	0	0	-0.106732	0.101913	-0.305319	0.335108	-0.168509	0	0	-0.193226	0.0203463	-0.0920081	-0.268392	-0.238376	-0.162731	0.490921	0.616475	0	0	0.0896599	-0.72058	1.02835	0.678163	0.71321	0	0
1.01	0.390411	1.46104	-2.01331	0.737891	0.194909	1.06314	0.346628	-0.0517164	0.0312674	1.08005	-0.122869	0	0	-0.113709	0.0984939	-0.303108	0.330894	-0.166185	0	0	-0.187619	0.0255324	-0.0965939	-0.265185	-0.23768	-0.165623	0.490201	0.620174	0	0	0.101983	-0.728561	1.01156	0.685994	0.738734	0	0
1.02	0.375848	1.46656	-1.99636	0.738345	0.186337	1.06285	0.355817	-0.0463672	0.029506	1.03846	-0.112704	0	0	-0.120012	0.0952531	-0.301564	0.326997	-0.163466	0	0	-0.181552	0.0300329	-0.100342	-0.261726	-0.236853	-0.168247	0.488768	0.623918	0	0	0.113537	-0.736237	0.993797	0.694002	0.764292	0	0
1.03	0.366865	1.47221	-1.98542	0.738681	0.177758	1.0624	0.364051	-0.0419598	0.028038	0.994519	-0.103562	0	0	-0.125709	0.0925079	-0.30057	0.323719	-0.160237	0	0	-0.175112	0.0335329	-0.103503	-0.258007	-0.235807	-0.170791	0.486634	0.627395	0	0	0.123986	-0.743736	0.974538	0.702341	0.790089	0	0
1.04	0.365874	1.47816	-1.98317	0.738934	0.169089	1.06178	0.371544	-0.0385088	0.0267596	0.948051	-0.0948879	0	0	-0.13092	0.0905733	-0.300519	0.320351	-0.15702	0	0	-0.167957	0.0361417	-0.106464	-0.254281	-0.234883	-0.172943	0.484331	0.630652	0	0	0.132872	-0.750918	0.953959	0.710815	0.815301	0	0
1.05	0.371728	1.48434	-1.98827	0.739087	0.16034	1.06102	0.378015	-0.0356538	0.0253951	0.898816	-0.0875596	0	0	-0.135711	0.089304	-0.30039	0.31687	-0.154142	0	0	-0.160372	0.0382464	-0.109345	-0.25086	-0.234165	-0.174576	0.482481	0.633788	0	0	0.14104	-0.757578	0.933307	0.719185	0.837528	0	0
1.06	0.383953	1.49062	-2.00008	0.739179	0.151573	1.06012	0.383485	-0.0332186	0.0233287	0.846586	-0.0826193	0	0	-0.139829	0.088351	-0.299989	0.313956	-0.151388	0	0	-0.152586	0.0397885	-0.111709	-0.247683	-0.233505	-0.175917	0.480584	0.636609	0	0	0.149168	-0.764038	0.914018	0.727364	0.859123	0	0
1.07	0.402384	1.49607	-2.01835	0.739242	0.142918	1.05914	0.387333	-0.0314897	0.0198735	0.791053	-0.0804103	0	0	-0.144343	0.0881285	-0.299159	0.311348	-0.148468	0	0	-0.146051	0.0405338	-0.113407	-0.244737	-0.232914	-0.177001	0.47946	0.639258	0	0	0.157845	-0.770796	0.896362	0.736058	0.880861	0	0
1.08	0.428826	1.50109	-2.04482	0.73929	0.134293	1.058	0.390032	-0.0302582	0.0144076	0.732266	-0.0810614	0	0	-0.148865	0.0884394	-0.298166	0.309254	-0.145134	0	0	-0.140226	0.0406512	-0.114468	-0.242221	-0.232363	-0.178081	0.479036	0.641397	0	0	0.166442	-0.777565	0.879046	0.745535	0.902364	0	0
1.09	0.446871	1.50564	-2.06257	0.739224	0.125548	1.05684	0.390218	-0.0280057	0.00857658	0.670144	-0.085135	0	0	-0.154347	0.0878008	-0.296684	0.307495	-0.141529	0	0	-0.135242	0.0412768	-0.115702	-0.239807	-0.231906	-0.178414	0.478485	0.643506	0	0	0.174606	-0.783407	0.861597	0.754212	0.922733	0	0
1.1	0.452337	1.50994	-2.06717	0.739049	0.116697	1.05565	0.388069	-0.024615	0.00320512	0.605514	-0.0924917	0	0	-0.160147	0.0862817	-0.295619	0.305987	-0.137807	0	0	-0.130971	0.0426856	-0.117375	-0.237713	-0.231549	-0.178321	0.478329	0.645525	0	0	0.182482	-0.789065	0.845542	0.762823	0.942219	0	0
1.11	0.455192	1.51434	-2.06887	0.738865	0.107773	1.05439	0.384614	-0.0209557	-0.00185045	0.53922	-0.102	0	0	-0.165713	0.0844902	-0.294689	0.304853	-0.13406	0	0	-0.126853	0.0444466	-0.119303	-0.235869	-0.231301	-0.178663	0.47855	0.646797	0	0	0.190021	-0.794393	0.83097	0.77128	0.960473	0	0
1.12	0.467261	1.5192	-2.07951	0.738693	0.0987813	1.053	0.380865	-0.017564	-0.00669217	0.472671	-0.112699	0	0	-0.170613	0.0827441	-0.293231	0.30419	-0.130238	0	0	-0.122073	0.0462165	-0.121325	-0.234449	-0.231276	-0.178986	0.479011	0.647807	0	0	0.197014	-0.79872	0.816884	0.778834	0.977311	0	0
1.13	0.490224	1.52438	-2.10054	0.738509	0.0896673	1.05147	0.376701	-0.0144372	-0.0100006	0.406814	-0.124248	0	0	-0.175046	0.0809582	-0.291505	0.303792	-0.126194	0	0	-0.116663	0.0479666	-0.123597	-0.233442	-0.23141	-0.179134	0.479422	0.648726	0	0	0.203414	-0.80234	0.803651	0.785865	0.992808	0	0
1.14	0.531062	1.52997	-2.13889	0.738326	0.0804407	1.04979	0.37284	-0.0117066	-0.0109746	0.343632	-0.134828	0	0	-0.178556	0.0790636	-0.289889	0.304006	-0.122414	0	0	-0.110262	0.0497061	-0.126104	-0.233085	-0.231507	-0.180136	0.480084	0.648646	0	0	0.210216	-0.80578	0.794609	0.792436	1.00374	0	0
1.15	0.583629	1.53547	-2.18818	0.738192	0.0711318	1.04807	0.368711	-0.00940016	-0.0107672	0.283271	-0.148358	0	0	-0.182076	0.0768395	-0.287908	0.304481	-0.118263	0	0	-0.104085	0.0515852	-0.129269	-0.233245	-0.231449	-0.181714	0.481615	0.64867	0	0	0.215987	-0.808582	0.784558	0.79897	1.01775	0	0
1.16	0.656272	1.54079	-2.25703	0.738064	0.0617204	1.04633	0.364629	-0.00743229	-0.00922629	0.227215	-0.160347	0	0	-0.185467	0.0744743	-0.285913	0.305554	-0.114194	0	0	-0.0978321	0.0534921	-0.132786	-0.233591	-0.231276	-0.18358	0.483115	0.648503	0	0	0.221639	-0.810606	0.775589	0.804673	1.03204	0	0
1.17	0.751544	1.54549	-2.34795	0.737967	0.052229	1.04463	0.36047	-0.006044	-0.00650693	0.176652	-0.169914	0	0	-0.189346	0.0720983	-0.283674	0.306844	-0.110611	0	0	-0.0920213	0.0555153	-0.13666	-0.233762	-0.231133	-0.185444	0.484273	0.647914	0	0	0.227568	-0.81223	0.769768	0.809749	1.04351	0	0
1.18	0.859872	1.5493	-2.45145	0.737904	0.0426595	1.04299	0.356126	-0.00534237	-0.00288284	0.132735	-0.179858	0	0	-0.194194	0.0696487	-0.281109	0.308019	-0.107449	0	0	-0.0873215	0.0578004	-0.141034	-0.233569	-0.231224	-0.186654	0.485394	0.647955	0	0	0.233265	-0.813708	0.766308	0.814564	1.05486	0	0
1.19	0.976008	1.55233	-2.56242	0.737847	0.0330102	1.04142	0.352091	-0.00513394	0.000888979	0.0978916	-0.189755	0	0	-0.199841	0.0670301	-0.277778	0.309118	-0.104878	0	0	-0.083658	0.0602336	-0.145488	-0.233289	-0.23161	-0.186837	0.486565	0.64932	0	0	0.238768	-0.814633	0.763809	0.818929	1.06574	0	0
